<svg xmlns="http://www.w3.org/2000/svg" width="1600" height="1067" viewBox="0 0 1600 1067" role="img" preserveAspectRatio="xMidYMid slice">
  <defs>
    <linearGradient id="g" gradientTransform="rotate(34)">
      <stop offset="0" stop-color="#C43A28"/>
      <stop offset="1" stop-color="#161616"/>
    </linearGradient>
    <radialGradient id="glow" cx="78%" cy="26%" r="55%">
      <stop offset="0" stop-color="#FFFDF8" stop-opacity="0.20"/>
      <stop offset="1" stop-color="#FFFDF8" stop-opacity="0"/>
    </radialGradient>
  </defs>
  <rect width="1600" height="1067" fill="url(#g)"/>
  <rect width="1600" height="1067" fill="url(#glow)"/>
  <circle cx="1248" cy="277" r="107" fill="#FFFDF8" opacity="0.10"/>
  <polygon points="0,1067 0,672 320,728 640,758 960,729 1280,673 1600,651 1600,1067" fill="#FFFDF8" opacity="0.06"/><polygon points="0,1067 0,895 320,873 640,807 960,768 1280,800 1600,867 1600,1067" fill="#FFFDF8" opacity="0.1"/><polygon points="0,1067 0,951 320,919 640,932 960,976 1280,1003 1600,983 1600,1067" fill="#FFFDF8" opacity="0.14"/>
  <rect x="64" y="949.9" width="30" height="53" rx="2" fill="#FF4B35"/>
  <text x="117.1" y="1003" font-family="'Space Grotesk', Arial, sans-serif" font-size="59" font-weight="700" fill="#FFFDF8" letter-spacing="0.5">Chongqing</text>
</svg>