<svg xmlns="http://www.w3.org/2000/svg" width="1600" height="1067" viewBox="0 0 1600 1067" role="img" preserveAspectRatio="xMidYMid slice">
  <defs>
    <linearGradient id="g" gradientTransform="rotate(24)">
      <stop offset="0" stop-color="#C43A28"/>
      <stop offset="1" stop-color="#161616"/>
    </linearGradient>
    <radialGradient id="glow" cx="78%" cy="26%" r="55%">
      <stop offset="0" stop-color="#FFFDF8" stop-opacity="0.20"/>
      <stop offset="1" stop-color="#FFFDF8" stop-opacity="0"/>
    </radialGradient>
  </defs>
  <rect width="1600" height="1067" fill="url(#g)"/>
  <rect width="1600" height="1067" fill="url(#glow)"/>
  <circle cx="1248" cy="277" r="107" fill="#FFFDF8" opacity="0.10"/>
  <polygon points="0,1067 0,653 320,667 640,721 960,757 1280,735 1600,679 1600,1067" fill="#FFFDF8" opacity="0.06"/><polygon points="0,1067 0,840 320,893 640,879 960,814 1280,769 1600,793 1600,1067" fill="#FFFDF8" opacity="0.1"/><polygon points="0,1067 0,997 320,957 640,921 960,928 1280,971 1600,1002 1600,1067" fill="#FFFDF8" opacity="0.14"/>
</svg>