<svg xmlns="http://www.w3.org/2000/svg" width="1600" height="1067" viewBox="0 0 1600 1067" role="img" preserveAspectRatio="xMidYMid slice">
  <defs>
    <linearGradient id="g" gradientTransform="rotate(35)">
      <stop offset="0" stop-color="#0FB08C"/>
      <stop offset="1" stop-color="#0A3B30"/>
    </linearGradient>
    <radialGradient id="glow" cx="78%" cy="26%" r="55%">
      <stop offset="0" stop-color="#FFFDF8" stop-opacity="0.20"/>
      <stop offset="1" stop-color="#FFFDF8" stop-opacity="0"/>
    </radialGradient>
  </defs>
  <rect width="1600" height="1067" fill="url(#g)"/>
  <rect width="1600" height="1067" fill="url(#glow)"/>
  <circle cx="1248" cy="277" r="107" fill="#FFFDF8" opacity="0.10"/>
  <polygon points="0,1067 0,656 320,662 640,713 960,755 1280,741 1600,687 1600,1067" fill="#FFFDF8" opacity="0.06"/><polygon points="0,1067 0,831 320,889 640,885 960,824 1280,772 1600,786 1600,1067" fill="#FFFDF8" opacity="0.1"/><polygon points="0,1067 0,1000 320,963 640,924 960,924 1280,964 1600,1000 1600,1067" fill="#FFFDF8" opacity="0.14"/>
</svg>