<svg xmlns="http://www.w3.org/2000/svg" width="1600" height="1067" viewBox="0 0 1600 1067" role="img" preserveAspectRatio="xMidYMid slice">
  <defs>
    <linearGradient id="g" gradientTransform="rotate(33)">
      <stop offset="0" stop-color="#0FB08C"/>
      <stop offset="1" stop-color="#0A3B30"/>
    </linearGradient>
    <radialGradient id="glow" cx="78%" cy="26%" r="55%">
      <stop offset="0" stop-color="#FFFDF8" stop-opacity="0.20"/>
      <stop offset="1" stop-color="#FFFDF8" stop-opacity="0"/>
    </radialGradient>
  </defs>
  <rect width="1600" height="1067" fill="url(#g)"/>
  <rect width="1600" height="1067" fill="url(#glow)"/>
  <circle cx="1248" cy="277" r="107" fill="#FFFDF8" opacity="0.10"/>
  <polygon points="0,1067 0,757 320,737 640,681 960,651 1280,679 1600,734 1600,1067" fill="#FFFDF8" opacity="0.06"/><polygon points="0,1067 0,817 320,770 640,791 960,857 1280,896 1600,865 1600,1067" fill="#FFFDF8" opacity="0.1"/><polygon points="0,1067 0,927 320,969 640,1001 960,989 1280,945 1600,918 1600,1067" fill="#FFFDF8" opacity="0.14"/>
</svg>