<svg xmlns="http://www.w3.org/2000/svg" width="1600" height="1067" viewBox="0 0 1600 1067" role="img" preserveAspectRatio="xMidYMid slice">
  <defs>
    <linearGradient id="g" gradientTransform="rotate(35)">
      <stop offset="0" stop-color="#1E2A5A"/>
      <stop offset="1" stop-color="#0FB08C"/>
    </linearGradient>
    <radialGradient id="glow" cx="78%" cy="26%" r="55%">
      <stop offset="0" stop-color="#FFFDF8" stop-opacity="0.20"/>
      <stop offset="1" stop-color="#FFFDF8" stop-opacity="0"/>
    </radialGradient>
  </defs>
  <rect width="1600" height="1067" fill="url(#g)"/>
  <rect width="1600" height="1067" fill="url(#glow)"/>
  <circle cx="1248" cy="277" r="107" fill="#FFFDF8" opacity="0.10"/>
  <polygon points="0,1067 0,746 320,753 640,706 960,658 1280,660 1600,710 1600,1067" fill="#FFFDF8" opacity="0.06"/><polygon points="0,1067 0,848 320,784 640,773 960,827 1280,887 1600,887 1600,1067" fill="#FFFDF8" opacity="0.1"/><polygon points="0,1067 0,918 320,948 640,991 960,1000 1280,966 1600,925 1600,1067" fill="#FFFDF8" opacity="0.14"/>
  <rect x="64" y="949.9" width="30" height="53" rx="2" fill="#FF4B35"/>
  <text x="117.1" y="1003" font-family="'Space Grotesk', Arial, sans-serif" font-size="59" font-weight="700" fill="#FFFDF8" letter-spacing="0.5">Xinjiang</text>
</svg>